<?xml version="1.0" encoding="utf-8"?>
<!-- Generator: Adobe Illustrator 18.0.0, SVG Export Plug-In . SVG Version: 6.00 Build 0)  -->
<!DOCTYPE svg PUBLIC "-//W3C//DTD SVG 1.1//EN" "http://www.w3.org/Graphics/SVG/1.1/DTD/svg11.dtd">
<svg version="1.1" id="Layer_1" xmlns="http://www.w3.org/2000/svg" xmlns:xlink="http://www.w3.org/1999/xlink" x="0px" y="0px"
	 viewBox="0 0 1000 175" enable-background="new 0 0 1000 175" xml:space="preserve">
<path fill="#0080A1" d="M924.1,105.8c-40.9,20.7-80.9,37.8-119.9,51.8c6.3-34.8,9.5-72.1,9.6-111.8c37.2-14.2,69.6-29.4,96.7-43.8
	c11-5.8,21.3-11.6,31.1-17.4C939.9,24.2,934.4,64.7,924.1,105.8 M773.6,254.9c-39.5,11-78.2,19.1-115.6,24.7
	c4.9-25.7,8.4-53.2,10.6-81.9c44.4-8.8,88.7-21.1,132.8-36.8C795.4,193.6,786.3,225.1,773.6,254.9 M512.9,290.9v-77
	c35-0.4,70.1-2.9,105.2-7.7c16.2-2.2,32.5-5,48.7-8.1c-2.2,28.7-5.7,56.2-10.7,81.9C605.5,287.4,557.4,290.6,512.9,290.9 M378,283.2
	c-8.1-1-16.1-2.1-23.9-3.2c-8-26.2-14.2-54-18.7-82.8c55.4,11.2,111.4,16.8,167.5,16.8c2.8,0,5.5-0.1,8.3-0.1v77
	C461.4,291.1,416.5,287.9,378,283.2 M225.9,253.4c-14.6-31.4-25.3-64.2-32.7-97.8c26.4,10.2,54.8,19.8,85.1,28.1
	c18.3,5,36.6,9.4,55,13.1c4.7,29.7,10.9,57.4,18.7,82.9C301,272.3,258.1,262.2,225.9,253.4 M63.4,90.9C55.6,53.8,52.1,16.3,52.3-21
	c9.5,6,19.4,12.1,30,18.2c26.5,15.3,58.5,31.5,95.4,46.5c1.1,38.2,5.3,74.4,12.7,108.7C140.2,132.8,97.5,110.9,63.4,90.9 M70.4-170
	c13,8.9,27.2,18,42.6,27.1c21.5,12.6,46.6,25.7,74.9,38.3c-4.2,27.1-7.3,53.6-8.9,79.2c-1.5,23-1.9,45.4-1.4,67.3
	c-36.5-14.9-68-30.9-94.3-46c-11-6.3-21.2-12.6-31-18.8C52.8-72.8,59.5-122.2,70.4-170 M117.4-317c34.9,22.4,70.2,41.7,105.9,57.9
	c-15.7,52.9-27.4,103.8-35,152.5c-28.1-12.4-52.9-25.5-74.2-38c-15.7-9.2-30-18.4-43.2-27.5C82.6-222.7,98.9-271.5,117.4-317
	 M161.6-412.9c8.2-16,16.6-31.7,25.2-46.8c24.6,16,55,33.3,90.6,48.7c-9.9,24.2-19.7,49.3-29,75.4c-9,25.2-17,50.1-24.3,74.5
	c-34.6-15.7-69.9-34.7-105.7-57.7C131.9-352.3,146.7-383.8,161.6-412.9 M265.9-586c20.4,12.6,45.5,25.9,74.5,37.5
	c-19.7,38.8-41.4,84.9-62.4,135.8c-35.5-15.3-65.8-32.6-90.3-48.6C214-508.2,241.2-550.4,265.9-586 M367.6-538.6
	c16.1,5.3,32.3,9.6,48.7,13.1c-11.8,42-24.7,91.6-37.1,145.8c-17.2-3.9-33.5-8.3-48.6-13.2c-17.9-5.8-34.9-12.2-50.8-19.1
	c21-50.9,42.8-97.1,62.5-135.9C350.3-544.6,358.7-541.5,367.6-538.6 M507.6-515.9c1.1,0,2.3-0.1,3.4-0.1v149.5
	c-47.9,0.9-91.6-4.3-130.1-12.8c12.4-54.2,25.3-103.8,37.1-145.8C447.6-519,477.6-515.9,507.6-515.9 M550.7-518
	c10.1-1,20.2-2.3,30.2-4c9.8,41.8,20.7,91,31.4,144.5c-34.8,6.8-68.1,10.2-99.5,10.9V-516C525.5-516.2,538.1-516.8,550.7-518
	 M661-542.4c17.4,39,36.6,84.9,55.3,135.3c-35.4,13.3-69.4,22.9-102.1,29.4c-10.7-53.5-21.6-102.7-31.4-144.5
	C608.9-526.7,635-533.5,661-542.4 M738-575.6c25.8,34.1,53.8,74.8,80.7,120.7c-34.5,19.2-68,34.7-100.6,47.1
	c-18.7-50.3-37.9-96.2-55.3-135.2C687.9-551.8,713-562.7,738-575.6 M842.4-412.2c16.4,31.1,32.4,65.5,46.7,102.6
	c-31.7,19.5-72.2,41.2-119.8,60.3c-6.4-23.4-13.3-47.1-21-71.3c-9.4-29.5-19.4-58-29.5-85.4c33.6-12.9,67.3-28.6,100.8-47.4
	C827.3-440,834.9-426.3,842.4-412.2 M931.8-158c-6.3,4.2-12.9,8.3-19.9,12.5c-28.4,17-64.8,35.5-109.2,52.1
	c-7.3-48.9-18.3-100.3-32.9-154.1c47.6-19.1,88.2-40.9,120-60.4C907.5-261.6,922.4-211.3,931.8-158 M671.5,85
	c-0.9-45.5-3.8-92.3-8.2-138.7c52.4-9.4,98.3-22.4,137.7-37c6.6,44.9,10.5,90.5,10.5,135.4C770.6,60.2,723.6,74.4,671.5,85
	 M671.5,86.9c52.1-10.5,99-24.7,140.1-40.3c-0.1,38.1-3.1,75.6-9.7,111.8c-45.8,16.3-90.3,28.4-133.1,36.8
	C671.4,160.5,672.2,124.1,671.5,86.9 M512.9,104.4c56.4-1.2,108.7-7.6,156.7-17.2c0.7,37.3-0.1,73.7-2.7,108.3
	c-54.1,10.5-105.6,15.5-154,16.1V104.4z M325.6,88.2c50.7,10.2,106.5,16.6,167.2,16.6c6.2,0,12.2-0.2,18.3-0.3v107.2
	c-64.7,0.7-123.7-6-176.1-16.5C329.7,160.8,326.8,124.8,325.6,88.2 M323.5,87.8c1.2,38.1,4.4,73.8,9.5,107
	c-18.9-3.9-37-8.2-54.1-12.9c-30.7-8.4-59.5-18.1-86.2-28.5C185,117.9,181,81.4,180,44.7C221.6,61.5,269.7,76.8,323.5,87.8
	 M346.9-215.6c-8.8,54.3-15.1,106.1-19.1,155.1c-51.9-11.8-98-27.9-137.6-45.3c8.2-52.9,20.5-104.4,34.7-152.6
	C265.2-240.1,305.9-225.9,346.9-215.6 M361.4-296.4c-5.2,26.7-9.9,52.8-14.1,78.5c-39.3-9.8-80-23.7-121.7-42.4
	c7.7-26,15.9-51,24.4-74.6c9.3-26,19-51.2,29-75.3c16,6.8,32.9,13.3,50.9,19.1c16.2,5.2,32.5,9.6,48.9,13.3
	C372.8-351.7,366.9-324.5,361.4-296.4 M511.1-197.8c-50.5,0.1-104.8-5.5-162-19.7c4.4-27.2,9.2-53.6,14.1-78.6
	c5.5-28,11.3-55.3,17.3-81.5c39.8,8.9,80.2,13.4,120.8,13.4c3.2,0,6.5-0.1,9.7-0.2V-197.8z M628.9-289.8c4.4,25.1,8.8,51.6,13,78.9
	c-39.1,7.8-82.4,12.9-128.9,13.2v-166.5c19.9-0.4,39.8-1.8,59.8-4.3c13.4-1.7,26.7-3.9,40.1-6.5
	C618.3-347.7,623.7-319.2,628.9-289.8 M686.7-221.5c-13.7,3.7-28,7.1-43,10.1c-4.2-27.3-8.5-53.7-13-78.8
	c-5.2-29.4-10.6-57.9-16.1-85.4c34.1-6.8,68.2-16.8,102.4-29.7c10.1,27.3,20,55.8,29.5,85.3c7.3,22.8,14.4,46.7,21.1,71.4
	C742.5-238.6,715.5-229.3,686.7-221.5 M644-209.4c14.4-3,28.8-6.4,43.2-10.3c28.8-7.8,55.8-17.1,80.9-27.1
	c13.2,48.9,24.8,101,32.7,154.1C761.4-78,715.5-65,663.1-55.6C658.2-108.1,651.5-160.1,644-209.4 M525.9-41.5
	c-4.4,0.1-8.6,0.1-13,0.1v-154.2c43-0.3,86.2-4.8,129.2-13.5c7.5,49.3,14.2,101.3,19.2,153.8C620.2-48,575.2-43,525.9-41.5
	 M512.9-39.4c4.3-0.1,8.6-0.1,13-0.2c49.3-1.5,94.4-6.5,135.5-13.8c4.3,46.5,7.3,93.3,8.2,138.8c-48,9.6-100.4,16-156.7,17.2V-39.4z
	 M329.8-60c4.2-53.2,11-105.6,19-155.2c12.8,3.2,25.6,6,38.4,8.4c40.1,7.5,80.5,11.2,121,11.2c1,0,2,0,3,0v154.2
	C444.6-40.5,383.9-47.8,329.8-60 M329.6-58.1c51.4,11.5,108.6,18.9,171.1,18.9c3.4,0,6.9-0.1,10.3-0.2v142
	c-6.1,0.1-12.1,0.3-18.3,0.3c-60.7,0-116.5-6.4-167.2-16.6C324.2,38.8,325.9-9.9,329.6-58.1 M190-103.8
	c39.6,17.4,85.7,33.5,137.7,45.3c-2.3,29-3.8,57-4.4,84c-0.5,20.8-0.4,40.9,0.2,60.4c-53.9-11-101.9-26.3-143.5-43.2
	C178.7-6.2,182.6-55.6,190-103.8 M941.6-17.6c-10.1,5.9-20.8,12-32.1,18c-26.9,14.2-59,29.3-95.7,43.4c0-16.2-0.5-32.7-1.5-49.7
	c-1.7-27.5-4.9-56.1-9.3-85.5c44.7-16.7,81.3-35.3,109.9-52.4c6.8-4.1,13.1-8.1,19.3-12.1C939.8-111.7,943.5-65.3,941.6-17.6
	 M1059.7-101c0.4-0.4,0.4-0.9,0-1.3c-0.4-0.3-0.9-0.4-1.3,0c-0.5,0.4-40.7,39.6-114.5,83.3c1.3-34.9-0.2-70.2-4.8-106
	c-1.4-10.8-3-21.6-4.9-32.4c65.3-43.1,95.6-82.1,95.9-82.5c0.3-0.4,0.2-1-0.2-1.3c-0.4-0.3-1-0.2-1.3,0.2
	c-0.3,0.4-30.3,38.9-94.8,81.6c-8.7-49.2-22.9-99.2-42.4-149.5c49.1-30.3,76.9-54.9,77.5-55.4c0.4-0.3,0.4-0.9,0.1-1.3
	c-0.3-0.4-0.9-0.4-1.3-0.1c-0.5,0.5-28.2,24.9-76.9,55.1c-13.2-34-28.8-68.2-46.8-102.4c-7.4-14.1-15.1-27.8-22.8-41.1
	c20.3-11.4,40.5-23.8,60.7-37.3c0.4-0.3,0.5-0.9,0.3-1.3c-0.3-0.4-0.9-0.5-1.3-0.3c-20.5,13.7-40.7,26-60.6,37.2
	c-26.8-45.9-54.9-86.6-80.6-120.7c14.1-7.4,28.2-15.5,42.3-24.2c0.4-0.3,0.6-0.8,0.3-1.3c-0.3-0.4-0.8-0.6-1.3-0.3
	c-14.3,8.9-28.5,16.9-42.5,24.2c-53.3-70.4-96.4-112.3-97.1-113c-0.4-0.4-1-0.3-1.3,0c-0.4,0.4-0.3,1,0,1.3
	c0.7,0.7,43.6,42.4,96.7,112.5c-25.6,13.3-50.6,23.9-74.8,32.3c-35.1-78.4-62.6-128.4-63-129.2c-0.2-0.4-0.8-0.6-1.3-0.4
	c-0.4,0.2-0.6,0.8-0.4,1.3c0.5,0.9,27.9,50.7,62.9,129c-26.9,9.2-53,15.7-77.9,19.9c-19.7-83.5-34.9-137.5-35.1-138.4
	c-0.1-0.5-0.6-0.8-1.1-0.6c-0.5,0.1-0.8,0.7-0.6,1.1c0.3,0.9,15.4,54.8,35.1,138.2c-23.5,3.8-46,5.7-67.5,6v-144.4
	c0-0.5-0.4-0.9-0.9-0.9c-0.5,0-0.9,0.4-0.9,0.9v144.5c-33.7,0.3-64.7-3.2-92.5-8.9c23-81.8,41.3-134.4,41.6-135.3
	c0.2-0.5-0.1-1-0.6-1.2c-0.5-0.2-1,0.1-1.2,0.6c-0.3,0.9-18.6,53.5-41.7,135.5c-17.5-3.6-33.7-8.1-48.5-13c-8.8-2.9-17.1-6-25.2-9.2
	c38.3-75.4,68.4-122.8,68.9-123.6c0.3-0.4,0.1-1-0.3-1.3c-0.4-0.3-1-0.2-1.3,0.3c-0.5,0.8-30.7,48.4-69.1,124
	c-29-11.6-53.9-24.8-74.3-37.3c50.6-72.9,90.5-118.1,91.2-118.8c0.3-0.4,0.3-1-0.1-1.3c-0.4-0.3-1-0.3-1.3,0.1
	c-0.7,0.7-40.6,46-91.4,119.1c-38.4-23.9-60.1-44.7-60.5-45.1c-0.4-0.4-0.9-0.3-1.3,0c-0.4,0.4-0.4,1,0,1.3
	c0.4,0.4,22.2,21.3,60.8,45.3c-24.7,35.7-51.8,77.8-78.2,124.7c-45-29.6-70-54.7-70.5-55.2c-0.3-0.4-0.9-0.4-1.3,0
	c-0.4,0.4-0.4,0.9,0,1.3c0.4,0.5,25.6,25.7,70.9,55.5c-8.5,15.2-17,30.9-25.2,47c-16.2,31.7-30.7,63-43.4,93.9
	c-29-18.7-58.4-39.8-88-63.8c-0.4-0.3-1-0.3-1.3,0.1c-0.3,0.4-0.3,1,0.1,1.3c29.1,23.6,58.6,45.1,88.4,64.3
	c-20.3,49.5-35.9,97.9-46.9,144.7c-63.6-43.8-97.3-82.1-97.7-82.6c-0.3-0.4-0.9-0.4-1.3-0.1c-0.4,0.3-0.4,0.9-0.1,1.3
	c0.4,0.5,34.5,39.2,98.6,83.3c-3.3,14.5-6.3,28.8-8.7,42.9c-6.1,35.6-9.3,70.3-9.6,103.9C-20.5-70.1-58-111-58.4-111.5
	c-0.3-0.4-0.9-0.4-1.3-0.1c-0.4,0.3-0.4,0.9-0.1,1.3c0.4,0.5,38.4,41.9,109.9,88c-0.2,38.7,3.4,76,10.9,111.8
	C3.8,55.6-28.2,27.8-28.8,27.3c-0.4-0.3-1-0.3-1.3,0.1c-0.3,0.4-0.3,1,0.1,1.3c0.6,0.5,33.3,28.9,91.7,63.3
	c6.3,29.2,15.1,57.4,26.5,84.4c0.2,0.4,0.5,0.6,0.9,0.6c0.1,0,0.2,0,0.4-0.1c0.5-0.2,0.7-0.7,0.5-1.2C78.4,148.6,70,121.1,63.9,93.3
	c34.1,20,76.9,41.8,126.9,61.3c7.6,34.8,18.6,67.5,32.7,98.1c-39.1-10.9-61.5-19.9-62-20.1c-0.5-0.2-1,0-1.2,0.5
	c-0.2,0.5,0,1,0.5,1.2c0.4,0.2,23.6,9.5,63.7,20.6c3.7,7.9,7.6,15.8,11.8,23.4c0.2,0.3,0.5,0.5,0.8,0.5c0.2,0,0.3,0,0.4-0.1
	c0.4-0.2,0.6-0.8,0.4-1.3c-3.9-7.2-7.6-14.5-11-21.9c32.3,8.9,75.1,18.8,125.7,26.1c4,13,8.4,25.4,13.2,37.3
	c0.2,0.4,0.5,0.6,0.9,0.6c0.1,0,0.2,0,0.3-0.1c0.5-0.2,0.7-0.7,0.5-1.2c-4.8-11.7-9-23.8-12.9-36.3c7.5,1.1,15.2,2.1,23,3.1
	c37.1,4.5,80.3,7.7,128,7.7c1.8,0,3.6,0,5.4-0.1v48.7c0,0.5,0.4,0.9,0.9,0.9c0.5,0,0.9-0.4,0.9-0.9v-48.7
	c44.3-0.3,92.3-3.4,142.8-10.9c-2.5,12.6-5.3,24.8-8.5,36.5c-0.1,0.5,0.2,1,0.6,1.1c0.1,0,0.2,0,0.2,0c0.4,0,0.8-0.3,0.9-0.7
	c3.3-11.9,6.1-24.4,8.7-37.3c37.2-5.6,75.7-13.5,115-24.4c-4.4,10.1-9.1,20-14.3,29.6c-0.2,0.4-0.1,1,0.4,1.3
	c0.1,0.1,0.3,0.1,0.4,0.1c0.3,0,0.6-0.2,0.8-0.5c5.4-10,10.4-20.4,15-31.1c32.1-9,64.6-20,97.4-33.3c0.5-0.2,0.7-0.7,0.5-1.2
	c-0.2-0.5-0.7-0.7-1.2-0.5c-32.3,13.1-64.3,23.9-95.8,32.8c12.2-28.9,21.5-60.3,27.8-94.1c40.1-14.4,80.1-31.8,119.8-52
	c-8.5,33.4-20.1,67.1-35.5,100.9c-0.2,0.5,0,1,0.5,1.2c0.1,0.1,0.3,0.1,0.4,0.1c0.4,0,0.7-0.2,0.8-0.5
	c15.3-33.5,27.3-67.8,36.2-102.8c38.7-19.7,77.1-42,115.2-67.1c0.4-0.3,0.6-0.9,0.3-1.3c-0.3-0.4-0.9-0.5-1.3-0.3
	c-38.5,25.3-76.4,47.3-113.7,66.3c9.9-39.6,15.8-80.1,17.5-121.4C1018.6-60.8,1059.3-100.5,1059.7-101"/>
<rect x="-50" y="63.2" fill="none" width="1100" height="48.5"/>
</svg>
