<?xml version="1.0" encoding="utf-8"?>
<!-- Generator: Adobe Illustrator 18.0.0, SVG Export Plug-In . SVG Version: 6.00 Build 0)  -->
<!DOCTYPE svg PUBLIC "-//W3C//DTD SVG 1.1//EN" "http://www.w3.org/Graphics/SVG/1.1/DTD/svg11.dtd">
<svg version="1.1" id="Layer_1" xmlns="http://www.w3.org/2000/svg" xmlns:xlink="http://www.w3.org/1999/xlink" x="0px" y="0px"
	 viewBox="0 0 1400 610" enable-background="new 0 0 1400 610" xml:space="preserve">
<g>
	<defs>
		<rect id="SVGID_1_" x="0.4" y="-0.8" width="1426.8" height="611.1"/>
	</defs>
	<clipPath id="SVGID_2_">
		<use xlink:href="#SVGID_1_"  overflow="visible"/>
	</clipPath>
	<g clip-path="url(#SVGID_2_)">
		<defs>
			<rect id="SVGID_3_" x="-79" y="-562.7" width="1575.8" height="1477.7"/>
		</defs>
		<clipPath id="SVGID_4_">
			<use xlink:href="#SVGID_3_"  overflow="visible"/>
		</clipPath>
		<path clip-path="url(#SVGID_4_)" fill="#3C4650" d="M1276.8,552.5c-54.7,27.8-108.3,50.6-160.5,69.3
			c8.5-46.6,12.7-96.6,12.8-149.7c49.8-19,93.2-39.4,129.5-58.7c14.7-7.8,28.5-15.6,41.7-23.3C1298,443.3,1290.6,497.6,1276.8,552.5
			 M1075.3,752.2c-52.9,14.8-104.7,25.6-154.8,33.1c6.6-34.5,11.3-71.2,14.2-109.7c59.4-11.7,118.8-28.2,177.9-49.3
			C1104.5,670.1,1092.3,712.4,1075.3,752.2 M726.2,800.4V697.3c46.9-0.6,93.9-3.9,140.8-10.3c21.7-3,43.5-6.7,65.2-10.9
			c-3,38.5-7.7,75.2-14.3,109.6C850.2,795.8,785.7,800,726.2,800.4 M545.5,790.2c-10.9-1.3-21.6-2.7-32-4.3
			c-10.8-35.1-19.1-72.3-25.1-110.9c74.2,15,149.1,22.6,224.3,22.6c3.7,0,7.4-0.2,11.1-0.2v103.1C657.3,800.8,597,796.4,545.5,790.2
			 M341.8,750.2c-19.6-42-33.9-85.9-43.8-131c35.4,13.7,73.4,26.5,114,37.6c24.5,6.7,49,12.6,73.7,17.6c6.2,39.8,14.6,76.8,25.1,111
			C442.5,775.5,384.9,762.1,341.8,750.2 M124.3,532.6c-10.5-49.7-15.1-99.8-14.9-149.8c12.7,8.1,26,16.3,40.2,24.4
			c35.5,20.5,78.3,42.1,127.7,62.3c1.4,51.1,7.1,99.7,17,145.5C227.1,588.8,169.9,559.4,124.3,532.6 M133.7,183.2
			c17.5,11.9,36.4,24.1,57.1,36.3c28.8,16.9,62.4,34.5,100.3,51.2c-5.6,36.3-9.7,71.7-12,106.1c-2,30.8-2.6,60.9-1.9,90.1
			c-48.8-20-91.1-41.4-126.3-61.7c-14.7-8.4-28.5-16.9-41.5-25.2C110,313.4,119.1,247.2,133.7,183.2 M196.6-13.5
			c46.7,29.9,94,55.8,141.8,77.5c-21,70.8-36.6,139-46.9,204.2c-37.6-16.6-70.8-34.1-99.4-50.8c-21-12.3-40.2-24.7-57.9-36.8
			C149.9,112.7,171.9,47.3,196.6-13.5 M255.7-142c11-21.5,22.3-42.4,33.7-62.7c32.9,21.5,73.7,44.6,121.3,65.2
			c-13.3,32.3-26.4,66.1-38.8,100.9c-12.1,33.8-22.8,67-32.6,99.8c-46.4-21-93.6-46.5-141.6-77.2C215.9-60.8,235.8-103.1,255.7-142
			 M395.4-373.8c27.4,16.9,60.9,34.6,99.8,50.2c-26.3,52-55.5,113.7-83.6,181.9c-47.5-20.5-88.2-43.6-121-65
			C326-269.6,362.4-326.1,395.4-373.8 M531.6-310.3c21.6,7.1,43.3,12.9,65.2,17.5c-15.7,56.2-33.1,122.6-49.7,195.2
			c-23.1-5.2-44.8-11.2-65.1-17.7c-24-7.7-46.7-16.4-68.1-25.5c28.2-68.2,57.3-130,83.6-181.9C508.5-318.4,519.8-314.2,531.6-310.3
			 M719.1-279.9c1.5,0,3.1-0.1,4.6-0.1v200.2c-64.2,1.2-122.6-5.8-174.3-17.2c16.6-72.6,33.9-139,49.7-195.2
			C638.8-284.1,678.9-279.9,719.1-279.9 M776.8-282.7c13.5-1.3,27-3.1,40.5-5.3c13.2,56,27.8,121.8,42.1,193.6
			c-46.6,9.1-91.2,13.7-133.2,14.6v-200.2C743.1-280.3,759.9-281.1,776.8-282.7 M924.5-315.5c23.3,52.2,49.1,113.7,74.1,181.2
			c-47.3,17.8-93,30.6-136.8,39.3c-14.3-71.7-28.9-137.5-42.1-193.5C854.7-294.4,889.7-303.5,924.5-315.5 M1027.6-359.9
			c34.5,45.7,72.1,100.2,108,161.7c-46.2,25.7-91.1,46.5-134.7,63c-25-67.4-50.8-128.8-74.1-181.1
			C960.6-328,994.1-342.6,1027.6-359.9 M1167.4-141.1c21.9,41.7,43.4,87.8,62.6,137.4c-42.5,26.1-96.7,55.2-160.4,80.8
			c-8.5-31.3-17.8-63.1-28.1-95.5c-12.6-39.5-25.9-77.7-39.5-114.3c45.1-17.2,90.1-38.4,135-63.4
			C1147.2-178.3,1157.4-160,1167.4-141.1 M1287.1,199.3c-8.5,5.6-17.3,11.2-26.6,16.8c-38,22.8-86.7,47.5-146.2,69.8
			c-9.8-65.4-24.5-134.4-44.1-206.4c63.8-25.6,118-54.7,160.7-80.9C1254.6,60.6,1274.6,128,1287.1,199.3 M938.6,524.7
			c-1.2-60.9-5.1-123.6-10.9-185.8c70.2-12.5,131.6-30,184.5-49.6c8.8,60.2,14.1,121.2,14.1,181.3
			C1071.2,491.5,1008.3,510.6,938.6,524.7 M938.6,527.2c69.7-14.1,132.6-33.1,187.6-53.9c-0.1,51-4.1,101.3-12.9,149.7
			c-61.4,21.9-120.9,38-178.2,49.3C938.4,625.9,939.5,577.2,938.6,527.2 M726.2,550.7c75.5-1.7,145.6-10.2,209.9-23
			c0.9,49.9-0.2,98.7-3.6,145C860,686.8,791,693.4,726.2,694.3V550.7z M475.4,529c67.9,13.7,142.6,22.2,223.9,22.2
			c8.3,0,16.3-0.3,24.5-0.5v143.6c-86.6,1-165.7-8-235.8-22.1C480.9,626.2,476.9,578.1,475.4,529 M472.6,528.4
			c1.6,51.1,5.9,98.9,12.7,143.3c-25.4-5.2-49.6-11-72.5-17.2c-41.1-11.3-79.6-24.3-115.4-38.2c-10.2-47.6-15.7-96.4-17.1-145.6
			C336.1,493.3,400.5,513.7,472.6,528.4 M503.9,122.2C492.2,195,483.7,264.3,478.4,330c-69.6-15.8-131.2-37.3-184.2-60.6
			c11-70.9,27.5-139.9,46.5-204.3C394.5,89.4,449,108.4,503.9,122.2 M523.3,14c-7,35.8-13.2,70.8-18.8,105.1
			c-52.7-13.2-107.1-31.7-163-56.8c10.3-34.8,21.4-68.3,32.6-99.9c12.4-34.8,25.5-68.5,38.8-100.8c21.4,9.2,44.1,17.8,68.2,25.6
			c21.7,7,43.5,12.8,65.4,17.8C538.5-60.1,530.7-23.6,523.3,14 M723.8,146c-67.6,0.1-140.3-7.4-216.9-26.3
			c5.9-36.4,12.3-71.7,18.9-105.2c7.4-37.5,15.2-74,23.2-109.1c53.3,11.9,107.3,18,161.8,18c4.3,0,8.7-0.1,13-0.2V146z M881.5,22.8
			c5.9,33.7,11.8,69.1,17.4,105.6c-52.4,10.5-110.3,17.3-172.7,17.6v-223c26.6-0.6,53.3-2.4,80.1-5.8c17.9-2.3,35.8-5.2,53.7-8.7
			C867.4-54.7,874.6-16.5,881.5,22.8 M958.9,114.3c-18.3,5-37.6,9.5-57.5,13.6C895.8,91.4,889.9,56,884,22.4
			C877-17,869.8-55.2,862.5-92c45.6-9.2,91.4-22.5,137.1-39.8c13.5,36.5,26.8,74.8,39.4,114.2c9.7,30.5,19.3,62.5,28.3,95.6
			C1033.6,91.4,997.4,103.9,958.9,114.3 M901.7,130.4c19.3-4,38.6-8.5,57.9-13.7c38.5-10.4,74.7-22.9,108.3-36.3
			c17.7,65.5,33.2,135.3,43.8,206.4c-52.8,19.6-114.2,37.1-184.3,49.6C920.7,266.1,911.7,196.5,901.7,130.4 M743.6,355.4
			c-5.9,0.2-11.5,0.1-17.3,0.2V149c57.6-0.4,115.4-6.4,173-18.1c10,66,19,135.7,25.6,206C869.9,346.6,809.6,353.3,743.6,355.4
			 M726.2,358.1c5.8-0.1,11.6-0.1,17.4-0.3c66-2,126.4-8.7,181.5-18.5c5.8,62.2,9.8,124.9,10.9,185.8
			c-64.2,12.9-134.4,21.4-209.9,23V358.1z M481,330.6c5.7-71.2,14.7-141.4,25.4-207.8c17.1,4.2,34.2,8.1,51.4,11.3
			c53.7,10,107.7,15,162,15c1.3,0,2.6-0.1,4-0.1v206.5C634.7,356.7,553.5,346.9,481,330.6 M480.8,333.1
			c68.9,15.4,145.4,25.2,229.2,25.2c4.6,0,9.2-0.2,13.8-0.2v190.1c-8.1,0.2-16.2,0.5-24.5,0.5c-81.3,0-156-8.6-223.9-22.3
			C473.5,462.9,475.7,397.7,480.8,333.1 M293.8,271.9c53.1,23.3,114.7,44.9,184.4,60.7c-3.1,38.8-5.2,76.4-5.9,112.4
			c-0.6,27.8-0.5,54.7,0.3,80.9c-72.1-14.7-136.5-35.2-192.2-57.8C278.6,402.6,283.9,336.5,293.8,271.9 M1300.3,387.3
			c-13.5,8-27.8,16-43,24.1c-36,19.1-79,39.3-128.2,58.1c0-21.7-0.6-43.8-2-66.6c-2.3-36.8-6.5-75.1-12.4-114.5
			c59.9-22.4,108.9-47.2,147.1-70.2c9.1-5.4,17.6-10.9,25.8-16.3C1297.8,261.4,1302.8,323.5,1300.3,387.3 M1458.5,275.7
			c0.5-0.5,0.5-1.3,0-1.8c-0.5-0.5-1.3-0.5-1.8,0c-0.6,0.6-54.5,53.1-153.3,111.6c1.8-46.7-0.3-94-6.4-142
			c-1.8-14.4-4.1-28.9-6.6-43.4c87.4-57.7,128.1-109.9,128.5-110.5c0.4-0.5,0.3-1.3-0.2-1.7c-0.6-0.4-1.3-0.3-1.7,0.2
			c-0.4,0.6-40.5,52.1-127,109.3c-11.7-65.9-30.7-132.8-56.8-200.2c65.7-40.6,103-73.6,103.8-74.2c0.5-0.5,0.6-1.2,0.1-1.7
			c-0.5-0.5-1.2-0.6-1.7-0.1c-0.7,0.7-37.8,33.4-103,73.7c-17.7-45.5-38.6-91.3-62.7-137.1c-10-18.9-20.2-37.3-30.5-55.1
			c27.2-15.2,54.3-31.9,81.3-49.9c0.6-0.4,0.7-1.1,0.3-1.7c-0.4-0.6-1.1-0.7-1.7-0.3c-27.4,18.4-54.5,34.9-81.2,49.8
			c-35.9-61.4-73.5-115.9-108-161.6c18.9-9.9,37.8-20.7,56.6-32.4c0.6-0.4,0.8-1.1,0.4-1.7c-0.4-0.6-1.1-0.8-1.7-0.4
			c-19.2,11.9-38.1,22.7-56.9,32.4c-71.4-94.2-129.1-150.4-130-151.3c-0.5-0.5-1.3-0.5-1.8,0c-0.5,0.5-0.5,1.3,0,1.8
			c0.9,0.9,58.4,56.8,129.5,150.6c-34.3,17.8-67.7,32-100.2,43.2c-47-105-83.8-171.9-84.4-173.1c-0.3-0.6-1.1-0.8-1.7-0.5
			c-0.6,0.3-0.8,1.1-0.5,1.7c0.6,1.2,37.4,67.9,84.2,172.7c-36.1,12.3-70.9,21-104.3,26.6c-26.3-111.8-46.7-184.1-47-185.4
			c-0.2-0.6-0.8-1-1.5-0.9c-0.7,0.2-1,0.9-0.9,1.5c0.4,1.3,20.7,73.4,47,185.1c-31.5,5.2-61.7,7.6-90.4,8v-193.4
			c0-0.7-0.6-1.2-1.2-1.2s-1.2,0.6-1.2,1.2v193.5c-45.1,0.4-86.6-4.3-123.9-11.9c30.8-109.6,55.3-179.9,55.7-181.2
			c0.2-0.6-0.1-1.3-0.8-1.6c-0.6-0.2-1.3,0.1-1.6,0.8c-0.4,1.2-25,71.7-55.8,181.5c-23.4-4.9-45.1-10.8-65-17.4
			c-11.7-3.9-22.9-8-33.8-12.3c51.3-101,91.6-164.5,92.3-165.6c0.4-0.6,0.2-1.3-0.4-1.7c-0.6-0.3-1.3-0.2-1.7,0.4
			c-0.7,1.1-41.1,64.8-92.5,166c-38.8-15.5-72.2-33.2-99.5-50C464.6-473.6,518.1-534,519-535c0.5-0.5,0.4-1.3-0.1-1.8
			c-0.5-0.5-1.3-0.4-1.8,0.1c-0.9,1-54.4,61.6-122.4,159.5c-51.5-32-80.5-59.9-81-60.4c-0.5-0.5-1.3-0.5-1.8,0
			c-0.5,0.5-0.5,1.3,0,1.8c0.5,0.5,29.7,28.5,81.4,60.6c-33.1,47.8-69.4,104.2-104.8,167c-60.3-39.6-93.8-73.3-94.4-73.9
			c-0.5-0.5-1.2-0.5-1.8,0c-0.5,0.5-0.5,1.3,0,1.8c0.6,0.6,34.3,34.4,94.9,74.3c-11.4,20.3-22.7,41.3-33.8,62.9
			c-21.8,42.4-41.1,84.4-58.1,125.7c-38.9-25-78.2-53.3-117.8-85.5c-0.5-0.5-1.3-0.4-1.7,0.2c-0.4,0.5-0.4,1.3,0.2,1.7
			c39,31.7,78.5,60.4,118.4,86.1c-27.2,66.3-48.1,131.1-62.7,193.8C46.5,120.1,1.4,68.9,0.8,68.2c-0.5-0.5-1.2-0.6-1.8-0.1
			c-0.5,0.5-0.6,1.2-0.1,1.8c0.5,0.6,46.1,52.4,132.1,111.6c-4.5,19.4-8.4,38.5-11.6,57.5c-8.2,47.7-12.4,94.2-12.8,139.2
			C11.9,317-38.3,262.2-38.8,261.6c-0.5-0.5-1.2-0.5-1.8-0.1c-0.5,0.5-0.5,1.2-0.1,1.8c0.6,0.6,51.4,56.2,147.2,117.8
			c-0.3,51.8,4.6,101.8,14.6,149.7C44.5,485.4,1.5,448.1,0.7,447.4C0.2,447-0.6,447-1,447.5c-0.5,0.5-0.4,1.3,0.1,1.8
			c0.8,0.7,44.6,38.8,122.8,84.8c8.4,39.1,20.2,76.9,35.5,113.1c0.2,0.5,0.7,0.8,1.1,0.8c0.2,0,0.3,0,0.5-0.1c0.6-0.3,0.9-1,0.7-1.6
			c-15.3-36.3-26.7-73.1-34.7-110.3c45.7,26.7,102.9,56,170,82.1c10.2,46.6,24.8,90.4,43.7,131.3c-52.3-14.6-82.4-26.7-83-26.9
			c-0.6-0.2-1.3,0-1.6,0.7c-0.3,0.6,0,1.4,0.7,1.6c0.6,0.2,31.6,12.7,85.3,27.6c5,10.6,10.2,21.1,15.7,31.3c0.2,0.4,0.6,0.6,1.1,0.6
			c0.2,0,0.4,0,0.6-0.2c0.6-0.3,0.8-1.1,0.5-1.7c-5.3-9.6-10.1-19.4-14.8-29.3c43.2,11.9,100.5,25.1,168.4,35
			c5.4,17.3,11.2,34,17.7,49.9c0.2,0.5,0.7,0.8,1.2,0.8c0.2,0,0.3,0,0.5-0.1c0.6-0.3,0.9-1,0.7-1.6c-6.4-15.7-12.1-31.9-17.3-48.6
			c10.1,1.4,20.4,2.8,30.9,4.1c49.7,6,107.6,10.4,171.4,10.4c2.4,0,4.8-0.1,7.2-0.1v65.2c0,0.7,0.6,1.2,1.2,1.2s1.2-0.6,1.2-1.2
			v-65.2c59.4-0.4,123.6-4.5,191.2-14.5c-3.3,16.9-7.1,33.3-11.4,48.9c-0.2,0.7,0.2,1.3,0.9,1.5c0.1,0,0.2,0,0.3,0
			c0.5,0,1-0.4,1.2-0.9c4.4-16,8.2-32.7,11.6-49.9c49.8-7.5,101.4-18.1,154-32.7c-5.8,13.5-12.1,26.7-19.1,39.6
			c-0.3,0.6-0.1,1.4,0.5,1.7c0.2,0.1,0.4,0.1,0.6,0.1c0.4,0,0.9-0.2,1.1-0.6c7.3-13.4,13.9-27.3,20.1-41.7
			c42.9-12,86.5-26.7,130.5-44.5c0.6-0.3,0.9-1,0.7-1.6c-0.3-0.6-1-0.9-1.6-0.7c-43.2,17.5-86.1,31.9-128.4,43.9
			c16.3-38.7,28.7-80.8,37.2-126.1c53.7-19.3,107.2-42.6,160.4-69.6c-11.4,44.7-27,89.8-47.6,135.1c-0.3,0.6,0,1.4,0.6,1.6
			c0.2,0.1,0.3,0.1,0.5,0.1c0.5,0,0.9-0.3,1.1-0.7c20.5-44.9,36.6-90.8,48.5-137.7c51.8-26.4,103.3-56.3,154.3-89.9
			c0.6-0.4,0.7-1.1,0.4-1.7c-0.4-0.6-1.2-0.7-1.7-0.4c-51.6,33.9-102.3,63.3-152.2,88.8c13.3-53.1,21.1-107.3,23.4-162.5
			C1403.3,329.4,1457.8,276.3,1458.5,275.7"/>
	</g>
</g>
</svg>
